<mxfile host="Electron" modified="2023-06-03T11:10:24.909Z" agent="Mozilla/5.0 (Macintosh; Intel Mac OS X 10_15_7) AppleWebKit/537.36 (KHTML, like Gecko) draw.io/21.2.8 Chrome/112.0.5615.165 Electron/24.2.0 Safari/537.36" etag="m3JQetU0Clqn-OBiCiWf" version="21.2.8" type="device">
  <diagram name="Page-1" id="c4ky7NZfeGjKAh7baJ_N">
    <mxGraphModel dx="1078" dy="712" grid="1" gridSize="10" guides="1" tooltips="1" connect="1" arrows="1" fold="1" page="1" pageScale="1" pageWidth="827" pageHeight="1169" math="0" shadow="0">
      <root>
        <mxCell id="0" />
        <mxCell id="1" parent="0" />
        <mxCell id="O3atv7OgBsxd6-HXczgO-30" value="ETCD" style="sketch=0;html=1;dashed=0;whitespace=wrap;fillColor=#2875E2;strokeColor=#ffffff;points=[[0.005,0.63,0],[0.1,0.2,0],[0.9,0.2,0],[0.5,0,0],[0.995,0.63,0],[0.72,0.99,0],[0.5,1,0],[0.28,0.99,0]];verticalLabelPosition=bottom;align=center;verticalAlign=top;shape=mxgraph.kubernetes.icon;prIcon=etcd" parent="1" vertex="1">
          <mxGeometry x="190" y="295.5" width="50" height="48" as="geometry" />
        </mxCell>
        <mxCell id="O3atv7OgBsxd6-HXczgO-32" value="" style="shape=flexArrow;endArrow=classic;html=1;rounded=0;fillColor=#f5f5f5;strokeColor=#666666;sketch=1;curveFitting=1;jiggle=2;startArrow=block;exitX=0.28;exitY=0.99;exitDx=0;exitDy=0;exitPerimeter=0;entryX=0.5;entryY=0;entryDx=0;entryDy=0;entryPerimeter=0;" parent="1" edge="1">
          <mxGeometry width="50" height="50" relative="1" as="geometry">
            <mxPoint x="233" y="227.99999999999997" as="sourcePoint" />
            <mxPoint x="214" y="295.98" as="targetPoint" />
          </mxGeometry>
        </mxCell>
        <mxCell id="O3atv7OgBsxd6-HXczgO-34" value="Reconcile" style="edgeLabel;html=1;align=center;verticalAlign=middle;resizable=0;points=[];labelBackgroundColor=none;fontSize=9;spacingBottom=5;rotation=-75;" parent="O3atv7OgBsxd6-HXczgO-32" vertex="1" connectable="0">
          <mxGeometry x="-0.0309" y="3" relative="1" as="geometry">
            <mxPoint x="-2" y="4" as="offset" />
          </mxGeometry>
        </mxCell>
        <mxCell id="O3atv7OgBsxd6-HXczgO-43" value="" style="shape=flexArrow;endArrow=classic;html=1;rounded=0;fontStyle=1;fillColor=#ffe6cc;strokeColor=#d79b00;sketch=1;curveFitting=1;jiggle=2;" parent="1" edge="1">
          <mxGeometry width="50" height="50" relative="1" as="geometry">
            <mxPoint x="580" y="210" as="sourcePoint" />
            <mxPoint x="300" y="260" as="targetPoint" />
          </mxGeometry>
        </mxCell>
        <mxCell id="O3atv7OgBsxd6-HXczgO-44" value="Manage" style="edgeLabel;html=1;align=center;verticalAlign=middle;resizable=0;points=[];labelBackgroundColor=none;fontSize=9;spacingBottom=-2;rotation=353;" parent="O3atv7OgBsxd6-HXczgO-43" vertex="1" connectable="0">
          <mxGeometry x="-0.3333" y="-1" relative="1" as="geometry">
            <mxPoint as="offset" />
          </mxGeometry>
        </mxCell>
        <mxCell id="O3atv7OgBsxd6-HXczgO-31" value="Controller" style="sketch=0;html=1;dashed=0;whitespace=wrap;fillColor=#2875E2;strokeColor=#ffffff;points=[[0.005,0.63,0],[0.1,0.2,0],[0.9,0.2,0],[0.5,0,0],[0.995,0.63,0],[0.72,0.99,0],[0.5,1,0],[0.28,0.99,0]];verticalLabelPosition=bottom;align=center;verticalAlign=top;shape=mxgraph.kubernetes.icon;prIcon=api;spacingLeft=58;" parent="1" vertex="1">
          <mxGeometry x="220" y="180" width="50" height="48" as="geometry" />
        </mxCell>
        <mxCell id="O3-BG6UI4jVY9xxw0ht_-1" value="OraOperator" style="shape=mxgraph.cisco.people.androgenous_person;html=1;pointerEvents=1;dashed=0;fillColor=#036897;strokeColor=#ffffff;strokeWidth=2;verticalLabelPosition=bottom;verticalAlign=top;align=center;outlineConnect=0;spacingRight=21;" vertex="1" parent="1">
          <mxGeometry x="154" y="120" width="79" height="82" as="geometry" />
        </mxCell>
        <mxCell id="O3-BG6UI4jVY9xxw0ht_-2" value="DBA" style="shape=mxgraph.cisco.people.androgenous_person;html=1;pointerEvents=1;dashed=0;fillColor=#036897;strokeColor=#ffffff;strokeWidth=2;verticalLabelPosition=bottom;verticalAlign=top;align=center;outlineConnect=0;flipH=1;" vertex="1" parent="1">
          <mxGeometry x="594" y="120" width="79" height="82" as="geometry" />
        </mxCell>
        <mxCell id="O3-BG6UI4jVY9xxw0ht_-3" value="Developer" style="points=[[0.35,0,0],[0.98,0.51,0],[1,0.71,0],[0.67,1,0],[0,0.795,0],[0,0.65,0]];verticalLabelPosition=bottom;sketch=0;html=1;verticalAlign=top;aspect=fixed;align=center;pointerEvents=1;shape=mxgraph.cisco19.user;fillColor=#005073;strokeColor=none;" vertex="1" parent="1">
          <mxGeometry x="594" y="280" width="79" height="79" as="geometry" />
        </mxCell>
        <mxCell id="O3-BG6UI4jVY9xxw0ht_-5" value="&lt;font style=&quot;font-size: 9px;&quot;&gt;Monitor&lt;/font&gt;" style="shape=flexArrow;endArrow=classic;html=1;rounded=0;sketch=1;curveFitting=1;jiggle=2;fillColor=#e1d5e7;strokeColor=#9673a6;fontSize=9;labelBackgroundColor=none;" edge="1" parent="1">
          <mxGeometry width="50" height="50" relative="1" as="geometry">
            <mxPoint x="274" y="140" as="sourcePoint" />
            <mxPoint x="364" y="140" as="targetPoint" />
            <Array as="points" />
          </mxGeometry>
        </mxCell>
        <mxCell id="O3-BG6UI4jVY9xxw0ht_-6" value="&lt;font style=&quot;font-size: 9px;&quot;&gt;Events&lt;/font&gt;" style="shape=flexArrow;endArrow=classic;html=1;rounded=0;sketch=1;curveFitting=1;jiggle=2;fillColor=#fff2cc;strokeColor=#d6b656;fontSize=9;labelBackgroundColor=none;" edge="1" parent="1">
          <mxGeometry width="50" height="50" relative="1" as="geometry">
            <mxPoint x="334" y="160.5" as="sourcePoint" />
            <mxPoint x="244" y="160.5" as="targetPoint" />
            <Array as="points" />
          </mxGeometry>
        </mxCell>
        <mxCell id="O3-BG6UI4jVY9xxw0ht_-7" value="&lt;font style=&quot;font-size: 9px;&quot;&gt;Adjust&lt;/font&gt;" style="shape=flexArrow;endArrow=classic;html=1;rounded=0;sketch=1;curveFitting=1;jiggle=2;fillColor=#dae8fc;strokeColor=#6c8ebf;fontSize=9;labelBackgroundColor=none;" edge="1" parent="1">
          <mxGeometry width="50" height="50" relative="1" as="geometry">
            <mxPoint x="274" y="180" as="sourcePoint" />
            <mxPoint x="364" y="180" as="targetPoint" />
            <Array as="points" />
          </mxGeometry>
        </mxCell>
        <mxCell id="O3-BG6UI4jVY9xxw0ht_-8" value="&lt;font style=&quot;font-size: 9px;&quot;&gt;Provision&lt;/font&gt;" style="shape=flexArrow;endArrow=classic;html=1;rounded=0;sketch=1;curveFitting=1;jiggle=2;fillColor=#d5e8d4;strokeColor=#82b366;fontSize=9;labelBackgroundColor=none;" edge="1" parent="1">
          <mxGeometry x="0.3333" width="50" height="50" relative="1" as="geometry">
            <mxPoint x="272" y="105.5" as="sourcePoint" />
            <mxPoint x="362" y="105.5" as="targetPoint" />
            <Array as="points" />
            <mxPoint as="offset" />
          </mxGeometry>
        </mxCell>
        <mxCell id="O3-BG6UI4jVY9xxw0ht_-9" value="&lt;font style=&quot;font-size: 9px;&quot;&gt;Tune&lt;/font&gt;" style="shape=flexArrow;endArrow=classic;html=1;rounded=0;sketch=1;curveFitting=1;jiggle=2;fillColor=#fff2cc;strokeColor=#d6b656;fontSize=9;labelBackgroundColor=none;" edge="1" parent="1">
          <mxGeometry x="-0.0222" width="50" height="50" relative="1" as="geometry">
            <mxPoint x="578" y="140" as="sourcePoint" />
            <mxPoint x="488" y="140" as="targetPoint" />
            <Array as="points" />
            <mxPoint as="offset" />
          </mxGeometry>
        </mxCell>
        <mxCell id="O3-BG6UI4jVY9xxw0ht_-10" value="&lt;font style=&quot;font-size: 9px;&quot;&gt;Enhance&lt;br&gt;&lt;/font&gt;" style="shape=flexArrow;endArrow=classic;html=1;rounded=0;sketch=1;curveFitting=1;jiggle=2;fillColor=#dae8fc;strokeColor=#6c8ebf;fontSize=9;labelBackgroundColor=none;" edge="1" parent="1">
          <mxGeometry width="50" height="50" relative="1" as="geometry">
            <mxPoint x="564" y="170" as="sourcePoint" />
            <mxPoint x="474" y="170" as="targetPoint" />
            <Array as="points" />
          </mxGeometry>
        </mxCell>
        <mxCell id="O3-BG6UI4jVY9xxw0ht_-11" value="&lt;font style=&quot;font-size: 9px;&quot;&gt;Deploy&lt;br&gt;&lt;/font&gt;" style="shape=flexArrow;endArrow=classic;html=1;rounded=0;sketch=1;curveFitting=1;jiggle=2;fillColor=#ffcc99;strokeColor=#dba91f;fontSize=9;labelBackgroundColor=none;" edge="1" parent="1">
          <mxGeometry width="50" height="50" relative="1" as="geometry">
            <mxPoint x="274" y="216" as="sourcePoint" />
            <mxPoint x="364" y="216" as="targetPoint" />
            <Array as="points" />
          </mxGeometry>
        </mxCell>
        <mxCell id="O3-BG6UI4jVY9xxw0ht_-14" value="" style="shape=flexArrow;endArrow=classic;html=1;rounded=0;sketch=1;curveFitting=1;jiggle=2;startArrow=block;" edge="1" parent="1">
          <mxGeometry width="50" height="50" relative="1" as="geometry">
            <mxPoint x="654" y="300" as="sourcePoint" />
            <mxPoint x="654" y="230" as="targetPoint" />
          </mxGeometry>
        </mxCell>
        <mxCell id="O3-BG6UI4jVY9xxw0ht_-15" value="Collaborate" style="edgeLabel;html=1;align=center;verticalAlign=top;resizable=0;points=[];rotation=-90;labelBackgroundColor=none;fontSize=9;labelPosition=center;verticalLabelPosition=bottom;" vertex="1" connectable="0" parent="O3-BG6UI4jVY9xxw0ht_-14">
          <mxGeometry x="-0.4" relative="1" as="geometry">
            <mxPoint x="-12" y="-12" as="offset" />
          </mxGeometry>
        </mxCell>
        <mxCell id="O3-BG6UI4jVY9xxw0ht_-16" value="" style="whiteSpace=wrap;html=1;strokeColor=none;" vertex="1" parent="1">
          <mxGeometry x="150" y="120" width="39" height="82" as="geometry" />
        </mxCell>
        <mxCell id="O3-BG6UI4jVY9xxw0ht_-17" value="" style="whiteSpace=wrap;html=1;strokeColor=none;" vertex="1" parent="1">
          <mxGeometry x="180" y="140" width="23" height="20" as="geometry" />
        </mxCell>
        <mxCell id="O3atv7OgBsxd6-HXczgO-28" value="" style="whiteSpace=wrap;html=1;dashed=1;fillColor=none;" parent="1" vertex="1">
          <mxGeometry x="170" y="30" width="250" height="350" as="geometry" />
        </mxCell>
        <mxCell id="O3atv7OgBsxd6-HXczgO-25" value="K8s Cluster" style="image;sketch=0;aspect=fixed;html=1;points=[];align=center;fontSize=12;image=img/lib/mscae/Kubernetes.svg;" parent="1" vertex="1">
          <mxGeometry x="150" y="10" width="50" height="48" as="geometry" />
        </mxCell>
        <mxCell id="O3atv7OgBsxd6-HXczgO-50" value="" style="shape=flexArrow;endArrow=classic;html=1;rounded=0;fontStyle=1;fillColor=#ffe6cc;strokeColor=#d79b00;sketch=1;curveFitting=1;jiggle=2;entryX=0.5;entryY=0.657;entryDx=0;entryDy=0;entryPerimeter=0;" parent="1" edge="1">
          <mxGeometry width="50" height="50" relative="1" as="geometry">
            <mxPoint x="580" y="354" as="sourcePoint" />
            <mxPoint x="295" y="283.94999999999993" as="targetPoint" />
          </mxGeometry>
        </mxCell>
        <mxCell id="O3atv7OgBsxd6-HXczgO-51" value="DevOps" style="edgeLabel;html=1;align=center;verticalAlign=middle;resizable=0;points=[];labelBackgroundColor=none;fontSize=9;spacingBottom=-4;rotation=16;" parent="O3atv7OgBsxd6-HXczgO-50" vertex="1" connectable="0">
          <mxGeometry x="-0.3333" y="-1" relative="1" as="geometry">
            <mxPoint as="offset" />
          </mxGeometry>
        </mxCell>
        <mxCell id="O3-BG6UI4jVY9xxw0ht_-18" value="Escalate" style="shape=flexArrow;endArrow=classic;html=1;rounded=1;sketch=1;curveFitting=1;jiggle=2;labelPosition=center;verticalLabelPosition=top;align=center;verticalAlign=bottom;spacingBottom=4;" edge="1" parent="1">
          <mxGeometry width="50" height="50" relative="1" as="geometry">
            <mxPoint x="220.00000000000045" y="89.99999999999977" as="sourcePoint" />
            <mxPoint x="640.0000000000005" y="89.99999999999977" as="targetPoint" />
            <Array as="points">
              <mxPoint x="320.00000000000045" y="39.99999999999977" />
              <mxPoint x="430.00000000000045" y="29.999999999999773" />
              <mxPoint x="540.0000000000005" y="39.99999999999977" />
            </Array>
          </mxGeometry>
        </mxCell>
        <mxCell id="O3-BG6UI4jVY9xxw0ht_-4" value="" style="html=1;verticalLabelPosition=bottom;align=center;labelBackgroundColor=#ffffff;verticalAlign=top;strokeWidth=2;strokeColor=#B20000;shadow=0;dashed=0;shape=mxgraph.ios7.icons.data;fillColor=none;fontColor=#ffffff;sketch=1;curveFitting=1;jiggle=2;" vertex="1" parent="1">
          <mxGeometry x="374" y="100" width="90" height="122" as="geometry" />
        </mxCell>
        <mxCell id="O3atv7OgBsxd6-HXczgO-24" value="CRD" style="sketch=0;html=1;dashed=0;whitespace=wrap;fillColor=#2875E2;strokeColor=#ffffff;points=[[0.005,0.63,0],[0.1,0.2,0],[0.9,0.2,0],[0.5,0,0],[0.995,0.63,0],[0.72,0.99,0],[0.5,1,0],[0.28,0.99,0]];verticalLabelPosition=top;align=center;verticalAlign=bottom;shape=mxgraph.kubernetes.icon;prIcon=crd;labelPosition=center;" parent="1" vertex="1">
          <mxGeometry x="370" y="70" width="50" height="48" as="geometry" />
        </mxCell>
      </root>
    </mxGraphModel>
  </diagram>
</mxfile>
